<svg width="48" height="48" viewBox="0 0 48 48" fill="none" xmlns="http://www.w3.org/2000/svg">
    <path d="M38.5 8H9.5C6.468 8 4 10.467 4 13.5V34.5C4 37.533 6.468 40 9.5 40H38.5C41.532 40 44 37.533 44 34.5V13.5C44 10.467 41.532 8 38.5 8ZM21.5 28C22.329 28 23 28.671 23 29.5C23 30.329 22.329 31 21.5 31H14.5C13.671 31 13 30.329 13 29.5C13 25.721 15.592 24 18 24C19.103 24 20 23.103 20 22C20 20.897 19.103 20 18 20C16.537 20 16.097 20.931 15.985 21.712C15.868 22.533 15.107 23.103 14.288 22.985C13.468 22.868 12.898 22.108 13.015 21.288C13.387 18.683 15.344 17 18 17C20.757 17 23 19.243 23 22C23 24.757 20.757 27 18 27C17.664 27 16.782 27.093 16.309 28H21.5ZM30.133 31C27.15 31 25.539 29.234 25.365 29.033C24.823 28.406 24.893 27.459 25.52 26.917C26.146 26.376 27.093 26.445 27.636 27.072C27.655 27.093 28.513 28 30.133 28C30.83 28 32 27.837 32 26.75C32 25.763 30.429 25.5 29.5 25.5C28.671 25.5 28 24.829 28 24C28 23.171 28.671 22.5 29.5 22.5H30.021C30.405 22.5 31.5 22.271 31.5 21.25C31.5 20.42 30.953 20 29.874 20C28.498 20 27.658 20.904 27.623 20.942C27.069 21.548 26.125 21.605 25.512 21.061C24.899 20.517 24.829 19.588 25.366 18.967C25.539 18.766 27.143 17 29.874 17C32.598 17 34.5 18.748 34.5 21.25C34.5 22.264 34.169 23.123 33.638 23.796C34.506 24.533 35 25.548 35 26.75C35 29.292 33.044 31 30.133 31Z" fill="#e32526">

    </path>
</svg>