<svg width="48" height="48" viewBox="0 0 48 48" fill="none" xmlns="http://www.w3.org/2000/svg">
    <path d="M9.5 9C6.468 9 4 11.467 4 14.5V33.5C4 36.533 6.468 39 9.5 39H38.5C41.532 39 44 36.533 44 33.5V14.5C44 11.467 41.532 9 38.5 9H9.5ZM21.3809 15H26.6191C28.7231 15 30.524 16.4305 31.002 18.4785L31.8496 22.1094C31.8576 22.1434 31.8583 22.1789 31.8633 22.2129C32.5643 22.9339 33 23.915 33 25V31C33 31.552 32.552 32 32 32H30C29.448 32 29 31.552 29 31V30H19V31C19 31.552 18.552 32 18 32H16C15.448 32 15 31.552 15 31V25C15 23.903 15.4432 22.9095 16.1582 22.1875C16.1632 22.1045 16.1705 22.0225 16.1895 21.9395L16.998 18.4785C17.476 16.4305 19.2769 15 21.3809 15ZM21.3809 18C20.6799 18 20.0789 18.4762 19.9199 19.1582L19.4902 21H28.5098L28.0801 19.1582C27.9211 18.4762 27.3201 18 26.6191 18H21.3809ZM19.5 24C19.1022 24 18.7206 24.158 18.4393 24.4393C18.158 24.7206 18 25.1022 18 25.5C18 25.8978 18.158 26.2794 18.4393 26.5607C18.7206 26.842 19.1022 27 19.5 27C19.8978 27 20.2794 26.842 20.5607 26.5607C20.842 26.2794 21 25.8978 21 25.5C21 25.1022 20.842 24.7206 20.5607 24.4393C20.2794 24.158 19.8978 24 19.5 24ZM28.5 24C28.1022 24 27.7206 24.158 27.4393 24.4393C27.158 24.7206 27 25.1022 27 25.5C27 25.8978 27.158 26.2794 27.4393 26.5607C27.7206 26.842 28.1022 27 28.5 27C28.8978 27 29.2794 26.842 29.5607 26.5607C29.842 26.2794 30 25.8978 30 25.5C30 25.1022 29.842 24.7206 29.5607 24.4393C29.2794 24.158 28.8978 24 28.5 24Z" fill="#e32526">

    </path>
</svg>